# xmcd CD database file
# Copyright (C) 1993-1998 Ti Kan
# 
# Track frame offsets:
#     150
#     19252
#     40570
#     63675
#     91200
#     111375
#     146482
#     179237
#     202862
#     225810
# 
# Disc length: 3317 seconds
# 
# Revision: 1
# Processed by: cddbd v1.4b41PL1 Copyright (c) Steve Scherf et al.
# Submitted via: DiscPlay 4.0.3
# 
DISCID=820cf30a
DTITLE=TONY O'MALLEY - SUNSHINE EVERYDAY
DYEAR=1900
DGENRE=
TTITLE0=SUNSHINE EVERYDAY
TTITLE1=MR OPERATOR
TTITLE2=THE MEANING
TTITLE3=WHEN THE KETTLE BOILS
TTITLE4=SERIOUS
TTITLE5=FOR THE CHILDREN
TTITLE6=LIVIN' AN' LOVIN'
TTITLE7=SOUL WITHIN
TTITLE8=SOMETHING BEAUTIFUL
TTITLE9=FREE AN' EASY
EXTD=
EXTT0=
EXTT1=
EXTT2=
EXTT3=
EXTT4=
EXTT5=
EXTT6=
EXTT7=
EXTT8=
EXTT9=
PLAYORDER=
